<svg width="2248" height="2248" viewBox="0 0 2248 2248" fill="none" xmlns="http://www.w3.org/2000/svg">
<path d="M275.636 338.454C257.917 243.289 372.422 179.652 443.526 245.337L1390.15 1119.82L1641.67 894.529L1757.62 806.363C1859.95 728.548 2005.89 784.584 2018.71 912.502C2025.29 978.181 2030 1049.68 2030 1119.82C2030 1194.9 2024.6 1286.05 2017.29 1375.12C2005.23 1522 1826.99 1580.24 1725.99 1472.93L1641.67 1383.35L1390.15 1119.82L443.522 2001.06C372.593 2067.09 257.76 2003.66 275.355 1908.36C327.394 1626.5 396.034 1233.23 396.034 1119.82C396.034 1006.61 327.641 617.764 275.636 338.454Z" fill="white"/>
</svg>
